<?xml version="1.0" encoding="UTF-8" standalone="no"?>
<!-- Created with Inkscape (http://www.inkscape.org/) -->

<svg
   version="1.1"
   id="svg2"
   width="557.7915"
   height="486.81775"
   viewBox="0 0 557.79149 486.81776"
   xmlns="http://www.w3.org/2000/svg"
   xmlns:svg="http://www.w3.org/2000/svg">
  <defs
     id="defs6" />
  <g
     id="g8"
     transform="matrix(1.3333333,0,0,-1.3333333,-765.71034,847.57902)">
    <path
       style="opacity:0.8;fill:#75baff;fill-opacity:1;stroke:#75baff;stroke-width:0;stroke-linejoin:bevel;stroke-opacity:1"
       d="m 992.00941,271.52572 -0.89696,363.63424 -232.64874,-0.38825 -165.14268,-179.67843 -6.71961,-9.42072 -4.44014,-8.47576 -3.4616,-9.17966 -2.37595,-8.82488 -1.2929,-6.82359 -0.74805,-7.99871 0.12409,-10.11409 0.99228,-9.64209 2.40512,-10.2276 3.927,-11.04812 3.2681,-6.34498 4.90001,-8.10617 6.52923,-8.10325 65.16674,-70.21273 z"
       id="path1629" />
    <path
       style="opacity:0.8;fill:#75baff;fill-opacity:1;stroke:#75baff;stroke-width:0;stroke-linejoin:bevel;stroke-opacity:1"
       d="m 990.69243,272.05003 -0.78839,363.63424 -204.48864,-0.38825 -145.15359,-179.67843 -5.90626,-9.42072 -3.9027,-8.47576 -3.04261,-9.17966 -2.08836,-8.82488 -1.1364,-6.82359 -0.65751,-7.99871 0.10907,-10.11409 0.87217,-9.64209 2.114,-10.2276 3.45168,-11.04812 2.87252,-6.34498 4.30691,-8.10617 5.73892,-8.10325 57.27887,-70.21273 z"
       id="path1629-0" />
    <path
       style="opacity:0.8;fill:#6fb2ff;fill-opacity:1;stroke:#75baff;stroke-width:0;stroke-linejoin:bevel;stroke-opacity:1"
       d="m 992.6264,272.00435 -0.6812,363.63424 -176.69908,-0.38825 -125.42752,-179.67843 -5.10362,-9.42072 -3.37232,-8.47576 -2.62913,-9.17966 -1.80456,-8.82488 -0.98196,-6.82359 -0.56816,-7.99871 0.0942,-10.11409 0.75365,-9.64209 1.82671,-10.2276 2.9826,-11.04812 2.48215,-6.34498 3.72161,-8.10617 4.95901,-8.10325 49.49479,-70.21273 z"
       id="path1629-0-8" />
  </g>
</svg>
